<?xml version="1.0" encoding="UTF-8"?>
<!DOCTYPE svg PUBLIC "-//W3C//DTD SVG 1.1//EN" "http://www.w3.org/Graphics/SVG/1.1/DTD/svg11.dtd">
<!-- Creator: CorelDRAW X8 -->
<svg xmlns="http://www.w3.org/2000/svg" xml:space="preserve" width="506px" height="473px" version="1.1" style="shape-rendering:geometricPrecision; text-rendering:geometricPrecision; image-rendering:optimizeQuality; fill-rule:evenodd; clip-rule:evenodd"
viewBox="0 0 506 473"
 xmlns:xlink="http://www.w3.org/1999/xlink">
 <defs>
  <style type="text/css">
   <![CDATA[
    .str0 {stroke:white;stroke-width:7.99963}
    .fil1 {fill:none}
    .fil0 {fill:#C0C24F}
    .fil2 {fill:white}
   ]]>
  </style>
 </defs>
 <g id="Capa_x0020_1">
  <metadata id="CorelCorpID_0Corel-Layer"/>
  <g id="_952811216">
   <g>
    <rect class="fil0 str0" x="69" y="143" width="62.6863" height="172.343" rx="33" ry="31"/>
    <rect class="fil0 str0" x="378" y="143" width="62.6863" height="172.343" rx="33" ry="31"/>
    <path class="fil0 str0" d="M190 46c0,0 -12,-22 -16,-30 -3,-4 0,-9 3,-11 3,-2 9,-2 11,2 5,8 18,31 18,31 30,-13 68,-13 98,0 0,0 13,-23 18,-31 2,-4 7,-4 11,-2 4,3 5,8 3,11 -4,8 -16,30 -16,30 36,22 58,56 58,102 0,61 0,118 0,179 0,13 -14,30 -31,30 -4,0 -13,0 -17,0 0,9 0,37 0,56 0,16 -13,29 -30,29 -18,0 -32,-13 -32,-29 0,-15 0,-47 0,-56 -8,0 -18,0 -26,0 0,9 0,37 0,56 0,16 -13,29 -31,29 -18,0 -32,-13 -32,-29 0,-18 0,-47 0,-56 -3,0 -10,0 -15,0 -18,0 -32,-17 -32,-30 0,-61 0,-118 0,-179 0,-46 22,-81 58,-102z"/>
    <line class="fil1 str0" x1="132" y1="148" x2="378" y2= "148" />
    <circle class="fil2" cx="200" cy="90" r="10"/>
    <circle class="fil2" cx="309" cy="90" r="10"/>
   </g>
   <g>
    <path class="fil2" d="M45 461c0,4 0,7 0,12 -6,0 -3,0 -8,0 -25,0 -38,-10 -38,-35 0,-13 15,-32 32,-32 16,0 24,0 39,0 0,22 0,44 0,67 -4,0 -8,0 -12,0 0,-18 0,-38 0,-55 -12,0 -14,0 -25,0 -10,0 -22,8 -22,20 0,23 17,23 34,23z"/>
    <path class="fil2" d="M90 473c5,0 7,0 13,0 0,-15 0,-26 0,-41 0,-8 9,-16 20,-16 11,0 20,8 20,16 0,15 0,26 0,41 5,0 8,0 13,0 0,-15 0,-29 0,-44 0,-14 -16,-26 -33,-26 -16,0 -33,14 -33,26 0,15 0,29 0,44z"/>
    <path class="fil2" d="M253 453c0,-5 0,-8 0,-13 15,0 26,0 41,0 10,-2 9,-22 0,-23 -15,0 -26,0 -41,0 0,-5 0,-8 0,-13 15,0 25,0 40,0 27,0 27,39 9,46 3,2 11,14 11,22 -1,0 -13,0 -14,0 1,-6 -7,-19 -10,-19 -11,0 -25,0 -36,0z"/>
    <path class="fil2" d="M361 405c18,0 33,14 33,33 0,18 -15,33 -33,33 -19,0 -34,-15 -34,-33 0,-19 15,-33 34,-33zm0 11c11,0 21,11 21,22 0,11 -10,22 -21,22 -11,0 -22,-11 -22,-22 0,-11 11,-22 22,-22z"/>
    <path class="fil2" d="M167 471c0,-5 0,-8 0,-13 15,0 26,0 41,0 8,0 15,-9 15,-20 0,-11 -7,-20 -15,-20 -15,0 -26,0 -41,0 0,-6 0,-8 0,-13 15,0 29,0 44,0 14,0 26,16 26,33 0,16 -14,33 -26,33 -15,0 -29,0 -44,0z"/>
    <rect class="fil2" x="411" y="405" width="12.6787" height="66.5762"/>
    <path class="fil2" d="M435 471c0,-5 0,-8 0,-13 15,0 26,0 41,0 8,0 15,-9 15,-20 0,-11 -7,-20 -15,-20 -15,0 -26,0 -41,0 0,-6 0,-8 0,-13 15,0 29,0 43,0 15,0 27,16 27,33 0,16 -14,33 -27,33 -14,0 -28,0 -43,0z"/>
   </g>
  </g>
 </g>
</svg>
