<?xml version="1.0" encoding="UTF-8"?>
<!DOCTYPE svg PUBLIC "-//W3C//DTD SVG 1.1//EN" "http://www.w3.org/Graphics/SVG/1.1/DTD/svg11.dtd">
<!-- Creator: CorelDRAW X8 -->
<svg xmlns="http://www.w3.org/2000/svg" xml:space="preserve" width="275px" height="198px" version="1.1" style="shape-rendering:geometricPrecision; text-rendering:geometricPrecision; image-rendering:optimizeQuality; fill-rule:evenodd; clip-rule:evenodd"
viewBox="0 0 275 198"
 xmlns:xlink="http://www.w3.org/1999/xlink">
 <defs>
  <style type="text/css">
   <![CDATA[
    .fil0 {fill:#908F7D}
    .fil1 {fill:#FF6600}
   ]]>
  </style>
   <mask id="id0">
  <linearGradient id="id1" gradientUnits="userSpaceOnUse" x1="-406.814" y1="-4113.81" x2="-492.489" y2="-3901.79">
   <stop offset="0" style="stop-opacity:1; stop-color:white"/>
   <stop offset="1" style="stop-opacity:0; stop-color:white"/>
  </linearGradient>
    <rect style="fill:url(#id1)" x="-666" y="-4261" width="481" height="471"/>
   </mask>
 </defs>
 <g id="Capa_x0020_1">
  <metadata id="CorelCorpID_0Corel-Layer"/>
  <path class="fil0" style="mask:url(#id0)" d="M-666 -4261c219,131 259,267 149,365 0,0 271,116 262,105 184,-252 -16,-429 -411,-470z"/>
  <g id="_1098947120">
   <path class="fil1" d="M176 0c55,0 99,44 99,99 0,55 -44,99 -99,99 -51,0 -94,-39 -99,-89l120 0c0,-2 0,-18 0,-20l-120 0c5,-50 48,-89 99,-89z"/>
   <path class="fil1" d="M77 109l-12 0c0,0 0,20 0,20 0,0 -65,-30 -65,-30 0,0 65,-30 65,-30 0,0 0,20 0,20l12 0c0,3 0,7 0,10 0,3 0,7 0,10z"/>
  </g>
 </g>
</svg>
