<?xml version="1.0" encoding="UTF-8"?>
<!DOCTYPE svg PUBLIC "-//W3C//DTD SVG 1.1//EN" "http://www.w3.org/Graphics/SVG/1.1/DTD/svg11.dtd">
<!-- Creator: CorelDRAW X8 -->
<svg xmlns="http://www.w3.org/2000/svg" xml:space="preserve" width="248px" height="198px" version="1.1" style="shape-rendering:geometricPrecision; text-rendering:geometricPrecision; image-rendering:optimizeQuality; fill-rule:evenodd; clip-rule:evenodd"
viewBox="0 0 248 198"
 xmlns:xlink="http://www.w3.org/1999/xlink">
 <defs>
  <style type="text/css">
   <![CDATA[
    .fil1 {fill:#339966}
    .fil0 {fill:#908F7D}
   ]]>
  </style>
   <mask id="id0">
  <linearGradient id="id1" gradientUnits="userSpaceOnUse" x1="-420.314" y1="-4113.82" x2="-505.99" y2="-3901.8">
   <stop offset="0" style="stop-opacity:1; stop-color:white"/>
   <stop offset="1" style="stop-opacity:0; stop-color:white"/>
  </linearGradient>
    <rect style="fill:url(#id1)" x="-680" y="-4261" width="481" height="471"/>
   </mask>
 </defs>
 <g id="Capa_x0020_1">
  <metadata id="CorelCorpID_0Corel-Layer"/>
  <path class="fil0" style="mask:url(#id0)" d="M-679 -4261c219,131 259,267 149,365 0,0 271,116 261,105 185,-252 -16,-429 -410,-470z"/>
  <g id="_1011841136">
   <path class="fil1" d="M149 0c55,0 99,44 99,99 0,55 -44,99 -99,99 -51,0 -93,-39 -98,-89l81 0c0,0 0,20 0,20 0,0 64,-30 64,-30 0,0 -64,-30 -64,-30 0,0 0,20 0,20l-81 0c5,-50 47,-89 98,-89z"/>
   <path class="fil1" d="M0 109l51 0c0,-3 -1,-7 -1,-10 0,-3 1,-7 1,-10l-51 0c0,2 0,18 0,20z"/>
  </g>
 </g>
</svg>
