<?xml version="1.0" encoding="UTF-8"?>
<!DOCTYPE svg PUBLIC "-//W3C//DTD SVG 1.1//EN" "http://www.w3.org/Graphics/SVG/1.1/DTD/svg11.dtd">
<!-- Creator: CorelDRAW X8 -->
<svg xmlns="http://www.w3.org/2000/svg" xml:space="preserve" width="388px" height="126px" version="1.1" style="shape-rendering:geometricPrecision; text-rendering:geometricPrecision; image-rendering:optimizeQuality; fill-rule:evenodd; clip-rule:evenodd"
viewBox="0 0 388 126"
 xmlns:xlink="http://www.w3.org/1999/xlink">
 <defs>
  <style type="text/css">
   <![CDATA[
    .fil0 {fill:#908F7D}
    .fil1 {fill:#B3B3B3}
   ]]>
  </style>
   <mask id="id0">
  <linearGradient id="id1" gradientUnits="userSpaceOnUse" x1="-350.312" y1="-4149.8" x2="-435.987" y2="-3937.78">
   <stop offset="0" style="stop-opacity:1; stop-color:white"/>
   <stop offset="1" style="stop-opacity:0; stop-color:white"/>
  </linearGradient>
    <rect style="fill:url(#id1)" x="-610" y="-4297" width="481" height="471"/>
   </mask>
 </defs>
 <g id="Capa_x0020_1">
  <metadata id="CorelCorpID_0Corel-Layer"/>
  <path class="fil0" style="mask:url(#id0)" d="M-609 -4297c219,131 259,267 149,365 0,0 271,116 261,105 185,-252 -16,-429 -410,-470z"/>
  <g id="_1193792256">
   <circle class="fil1" cx="7" cy="7" r="7"/>
   <circle class="fil1" cx="33" cy="7" r="7"/>
   <circle class="fil1" cx="59" cy="7" r="7"/>
   <circle class="fil1" cx="84" cy="7" r="7"/>
   <circle class="fil1" cx="110" cy="7" r="7"/>
   <circle class="fil1" cx="136" cy="7" r="7"/>
   <circle class="fil1" cx="161" cy="7" r="7"/>
   <circle class="fil1" cx="187" cy="7" r="7"/>
   <circle class="fil1" cx="213" cy="7" r="7"/>
   <circle class="fil1" cx="238" cy="7" r="7"/>
   <circle class="fil1" cx="264" cy="7" r="7"/>
   <circle class="fil1" transform="matrix(0.299152 0.336339 -0.336339 0.299152 287.218 17.0499)" r="16"/>
   <circle class="fil1" transform="matrix(0.299152 0.336339 -0.336339 0.299152 302.869 33.903)" r="16"/>
   <circle class="fil1" transform="matrix(0.299152 0.336339 -0.336339 0.299152 318.399 51.0076)" r="16"/>
   <circle class="fil1" transform="matrix(0.299152 0.336339 -0.336339 0.299152 333.928 67.8879)" r="16"/>
   <circle class="fil1" transform="matrix(0.299152 0.336339 -0.336339 0.299152 349.579 84.7409)" r="16"/>
   <circle class="fil1" transform="matrix(0.299152 0.336339 -0.336339 0.299152 365.109 101.846)" r="16"/>
   <circle class="fil1" transform="matrix(0.299152 0.336339 -0.336339 0.299152 380.638 118.726)" r="16"/>
  </g>
 </g>
</svg>
