<?xml version="1.0" encoding="UTF-8"?>
<!DOCTYPE svg PUBLIC "-//W3C//DTD SVG 1.1//EN" "http://www.w3.org/Graphics/SVG/1.1/DTD/svg11.dtd">
<!-- Creator: CorelDRAW X8 -->
<svg xmlns="http://www.w3.org/2000/svg" xml:space="preserve" width="126px" height="182px" version="1.1" style="shape-rendering:geometricPrecision; text-rendering:geometricPrecision; image-rendering:optimizeQuality; fill-rule:evenodd; clip-rule:evenodd"
viewBox="0 0 126 182"
 xmlns:xlink="http://www.w3.org/1999/xlink">
 <defs>
  <style type="text/css">
   <![CDATA[
    .fil0 {fill:#908F7D}
    .fil1 {fill:#B3B3B3}
   ]]>
  </style>
   <mask id="id0">
  <linearGradient id="id1" gradientUnits="userSpaceOnUse" x1="-481.321" y1="-4121.87" x2="-566.998" y2="-3909.85">
   <stop offset="0" style="stop-opacity:1; stop-color:white"/>
   <stop offset="1" style="stop-opacity:0; stop-color:white"/>
  </linearGradient>
    <rect style="fill:url(#id1)" x="-741" y="-4269" width="481" height="471"/>
   </mask>
 </defs>
 <g id="Capa_x0020_1">
  <metadata id="CorelCorpID_0Corel-Layer"/>
  <path class="fil0" style="mask:url(#id0)" d="M-740 -4269c219,131 258,267 149,365 0,0 271,116 261,105 185,-252 -16,-429 -410,-470z"/>
  <g id="_1193760576">
   <circle class="fil1" transform="matrix(-1.19214E-14 -0.450128 0.450128 -1.19214E-14 7.27118 175.031)" r="16"/>
   <circle class="fil1" transform="matrix(-1.19214E-14 -0.450128 0.450128 -1.19214E-14 7.27118 149.374)" r="16"/>
   <circle class="fil1" transform="matrix(-1.19214E-14 -0.450128 0.450128 -1.19214E-14 7.27118 123.715)" r="16"/>
   <circle class="fil1" transform="matrix(0.336339 -0.299152 0.299152 0.336339 17.0502 100.391)" r="16"/>
   <circle class="fil1" transform="matrix(0.336339 -0.299152 0.299152 0.336339 33.9036 84.74)" r="16"/>
   <circle class="fil1" transform="matrix(0.336339 -0.299152 0.299152 0.336339 51.0085 69.21)" r="16"/>
   <circle class="fil1" transform="matrix(0.336339 -0.299152 0.299152 0.336339 67.889 53.6804)" r="16"/>
   <circle class="fil1" transform="matrix(0.336339 -0.299152 0.299152 0.336339 84.7423 38.0296)" r="16"/>
   <circle class="fil1" transform="matrix(0.336339 -0.299152 0.299152 0.336339 101.847 22.4996)" r="16"/>
   <circle class="fil1" transform="matrix(0.336339 -0.299152 0.299152 0.336339 118.728 6.97003)" r="16"/>
  </g>
 </g>
</svg>
