<?xml version="1.0" encoding="UTF-8"?>
<!DOCTYPE svg PUBLIC "-//W3C//DTD SVG 1.1//EN" "http://www.w3.org/Graphics/SVG/1.1/DTD/svg11.dtd">
<!-- Creator: CorelDRAW X8 -->
<svg xmlns="http://www.w3.org/2000/svg" xml:space="preserve" width="554px" height="470px" version="1.1" style="shape-rendering:geometricPrecision; text-rendering:geometricPrecision; image-rendering:optimizeQuality; fill-rule:evenodd; clip-rule:evenodd"
viewBox="0 0 554 470"
 xmlns:xlink="http://www.w3.org/1999/xlink">
 <defs>
  <style type="text/css">
   <![CDATA[
    .str1 {stroke:#666666;stroke-width:0.900003;stroke-opacity:0.800000}
    .str0 {stroke:white;stroke-width:4.00041}
    .fil2 {fill:#1A1A1A}
    .fil1 {fill:#333333}
    .fil0 {fill:#908F7D}
    .fil4 {fill:#FFFFCC}
    .fil3 {fill:#999999;fill-opacity:0.800000}
   ]]>
  </style>
   <mask id="id0">
  <linearGradient id="id1" gradientUnits="userSpaceOnUse" x1="-267.313" y1="-3977.8" x2="-352.988" y2="-3765.78">
   <stop offset="0" style="stop-opacity:1; stop-color:white"/>
   <stop offset="1" style="stop-opacity:0; stop-color:white"/>
  </linearGradient>
    <rect style="fill:url(#id1)" x="-527" y="-4125" width="481" height="471"/>
   </mask>
    <mask id="id2">
  <linearGradient id="id3" gradientUnits="userSpaceOnUse" x1="371.156" y1="15.1797" x2="294.797" y2="362.686">
   <stop offset="0" style="stop-opacity:1; stop-color:white"/>
   <stop offset="1" style="stop-opacity:0; stop-color:white"/>
  </linearGradient>
     <rect style="fill:url(#id3)" x="2" width="523" height="470"/>
    </mask>
 </defs>
 <g id="Capa_x0020_1">
  <metadata id="CorelCorpID_0Corel-Layer"/>
  <path class="fil0" style="mask:url(#id0)" d="M-526 -4125c219,131 259,267 149,365 0,0 271,116 261,105 185,-252 -16,-429 -410,-470z"/>
  <g id="_1281227312">
   <g>
    <path class="fil1 str0" d="M335 264c0,0 -109,0 -109,0 0,72 -109,74 -56,83 18,4 206,4 224,0 55,-9 -59,-11 -59,-83zm-41 25c0,0 19,0 19,0 2,24 21,32 31,39 -18,1 -25,0 -43,-2 -6,-13 -7,-7 -7,-37zm-27 0c0,0 -19,0 -19,0 -2,24 -21,34 -31,41 18,1 25,1 43,-2 5,-13 7,-9 7,-39z"/>
    <rect class="fil1 str0" x="43" y="20" width="479" height="250"/>
    <polygon class="fil2" points="66,43 66,246 498,246 498,43 "/>
    <rect class="fil1 str0" x="280" y="257" width="272" height="168"/>
    <polygon class="fil2" points="297,273 297,409 515,409 515,273 "/>
    <path class="fil3 str1" d="M529 331c6,0 10,5 10,10 0,5 -4,9 -10,9 -5,0 -9,-4 -9,-9 0,-5 4,-10 9,-10z"/>
    <rect class="fil1 str0" x="90" y="260" width="79.5918" height="122.03"/>
    <polygon class="fil2" points="104,273 104,361 156,361 156,273 "/>
    <path class="fil3 str1" d="M130 364c2,0 4,2 4,4 0,2 -2,3 -4,3 -2,0 -4,-1 -4,-3 0,-2 2,-4 4,-4z"/>
   </g>
   <path class="fil4" style="mask:url(#id2)" d="M2 0c280,86 326,273 128,470 112,0 225,0 337,0 205,-291 -178,-459 -465,-470z"/>
  </g>
 </g>
</svg>
