<?xml version="1.0" encoding="UTF-8"?>
<!DOCTYPE svg PUBLIC "-//W3C//DTD SVG 1.1//EN" "http://www.w3.org/Graphics/SVG/1.1/DTD/svg11.dtd">
<!-- Creator: CorelDRAW X8 -->
<svg xmlns="http://www.w3.org/2000/svg" xml:space="preserve" width="243px" height="360px" version="1.1" style="shape-rendering:geometricPrecision; text-rendering:geometricPrecision; image-rendering:optimizeQuality; fill-rule:evenodd; clip-rule:evenodd"
viewBox="0 0 243 360"
 xmlns:xlink="http://www.w3.org/1999/xlink">
 <defs>
  <style type="text/css">
   <![CDATA[
    .str0 {stroke:#517A49;stroke-width:3.99925}
    .fil1 {fill:#1A1A1A}
    .fil4 {fill:#333333}
    .fil2 {fill:#4D4D4D}
    .fil3 {fill:#517A49}
    .fil0 {fill:#908F7D}
    .fil5 {fill:#CBD8C9}
   ]]>
  </style>
   <mask id="id0">
  <linearGradient id="id1" gradientUnits="userSpaceOnUse" x1="-422.816" y1="-4032.83" x2="-508.492" y2="-3820.81">
   <stop offset="0" style="stop-opacity:1; stop-color:white"/>
   <stop offset="1" style="stop-opacity:0; stop-color:white"/>
  </linearGradient>
    <rect style="fill:url(#id1)" x="-682" y="-4180" width="481" height="471"/>
   </mask>
 </defs>
 <g id="Capa_x0020_1">
  <metadata id="CorelCorpID_0Corel-Layer"/>
  <path class="fil0" style="mask:url(#id0)" d="M-682 -4180c219,131 259,267 149,365 0,0 271,116 262,105 184,-252 -16,-429 -411,-470z"/>
  <g id="_1281189520">
   <polygon class="fil1" points="49,360 243,360 243,0 49,0 "/>
   <rect class="fil2" x="57" y="9" width="178.011" height="51.6136"/>
   <rect class="fil3" x="66" y="17" width="160.042" height="4.92123"/>
   <rect class="fil3" x="66" y="27" width="160.042" height="4.92123"/>
   <rect class="fil3" x="66" y="38" width="114.724" height="4.92123"/>
   <rect class="fil3" x="66" y="48" width="160.042" height="4.92123"/>
   <polygon class="fil4" points="49,360 243,360 212,231 79,231 "/>
   <circle class="fil5 str0" cx="225" cy="343" r="9"/>
   <circle class="fil5 str0" cx="202" cy="343" r="9"/>
   <circle class="fil5 str0" cx="179" cy="343" r="9"/>
   <path class="fil3" d="M146 85c54,0 97,44 97,97 0,53 -43,97 -97,97 -50,0 -91,-38 -96,-87l79 0c0,7 0,11 0,19 63,-29 0,0 63,-29 -63,-29 0,0 -63,-29 0,5 1,10 0,19l-79 0c5,-49 46,-87 96,-87z"/>
   <path class="fil3" d="M0 192l50 0c0,-3 -1,-7 -1,-10 0,-3 1,-6 1,-10l-50 0c0,3 0,18 0,20z"/>
  </g>
 </g>
</svg>
