<?xml version="1.0" encoding="UTF-8"?>
<!DOCTYPE svg PUBLIC "-//W3C//DTD SVG 1.1//EN" "http://www.w3.org/Graphics/SVG/1.1/DTD/svg11.dtd">
<!-- Creator: CorelDRAW X8 -->
<svg xmlns="http://www.w3.org/2000/svg" xml:space="preserve" width="100px" height="218px" version="1.1" style="shape-rendering:geometricPrecision; text-rendering:geometricPrecision; image-rendering:optimizeQuality; fill-rule:evenodd; clip-rule:evenodd"
viewBox="0 0 100 218"
 xmlns:xlink="http://www.w3.org/1999/xlink">
 <defs>
  <style type="text/css">
   <![CDATA[
    .str1 {stroke:#E6E6E6;stroke-width:3.99934}
    .str0 {stroke:#517A49;stroke-width:1.99967}
    .fil7 {fill:#78A864}
    .fil6 {fill:#121768}
    .fil1 {fill:#1A1A1A}
    .fil4 {fill:#333333}
    .fil2 {fill:#4D4D4D}
    .fil3 {fill:#517A49}
    .fil8 {fill:#51D1A6}
    .fil0 {fill:#908F7D}
    .fil5 {fill:#CBD8C9}
    .fil9 {fill:#D97B3C}
    .fil10 {fill:#006633;fill-rule:nonzero}
   ]]>
  </style>
   <mask id="id0">
  <linearGradient id="id1" gradientUnits="userSpaceOnUse" x1="-494.328" y1="-4103.92" x2="-580.006" y2="-3891.9">
   <stop offset="0" style="stop-opacity:1; stop-color:white"/>
   <stop offset="1" style="stop-opacity:0; stop-color:white"/>
  </linearGradient>
    <rect style="fill:url(#id1)" x="-754" y="-4251" width="481" height="471"/>
   </mask>
 </defs>
 <g id="Capa_x0020_1">
  <metadata id="CorelCorpID_0Corel-Layer"/>
  <path class="fil0" style="mask:url(#id0)" d="M-753 -4251c219,131 258,267 149,365 0,0 271,116 261,105 185,-252 -16,-429 -410,-470z"/>
  <g id="_1275676576">
   <polygon class="fil1" points="0,218 100,218 100,32 0,32 "/>
   <rect class="fil2" x="4" y="36" width="92.0021" height="26.6757"/>
   <rect class="fil3" x="9" y="40" width="82.715" height="2.54346"/>
   <rect class="fil3" x="9" y="46" width="82.715" height="2.54346"/>
   <rect class="fil3" x="9" y="51" width="59.2935" height="2.54346"/>
   <rect class="fil3" x="9" y="57" width="82.715" height="2.54346"/>
   <polygon class="fil4" points="0,218 100,218 84,151 16,151 "/>
   <circle class="fil5 str0" cx="91" cy="209" r="4"/>
   <circle class="fil5 str0" cx="79" cy="209" r="4"/>
   <circle class="fil5 str0" cx="67" cy="209" r="4"/>
   <g>
    <g>
     <circle class="fil6" cx="53" cy="120" r="30"/>
     <path class="fil7" d="M29 102c0,1 -1,8 1,6 0,0 1,-7 1,-4 1,3 -1,7 1,8 4,3 3,0 5,3 1,2 3,-1 3,2 0,2 7,6 4,7 -1,3 -1,7 2,9 3,2 2,6 4,7 0,1 1,5 0,6 -1,0 -1,2 -1,3 0,0 0,1 1,0 0,0 -1,0 -1,0 1,0 2,-1 2,-2 2,-2 -1,-1 2,-1 1,-2 3,3 3,-2 0,0 2,-1 3,-3 0,-1 5,-2 5,-4 0,-1 5,-3 5,-4 0,-2 7,-6 0,-7 0,0 -6,-2 -6,-4 -1,-3 -4,0 -8,-3 -3,-2 -3,0 -6,-4 0,-1 -1,2 -2,2 -2,1 0,4 -2,2 -3,-3 1,1 -3,-1 -1,-1 -1,-3 0,-3 1,0 -2,-3 -3,-2 -1,0 -1,-1 0,-2 2,-1 -1,-1 -3,1 -1,0 -3,-2 0,-4 1,-1 -1,-2 3,-3 3,-1 5,5 5,0 0,-3 -2,0 2,-3 0,-1 3,-4 4,-4 1,-1 -3,-2 -2,-4 0,0 -1,-3 -2,2 -1,2 -4,1 -3,0 6,-5 1,-4 0,-4 -1,-1 -4,1 -6,2 -1,0 -5,3 -6,5 -1,0 -2,2 -2,3z"/>
     <path class="fil7" d="M76 100c3,2 5,7 5,8 1,2 2,6 2,10 0,0 0,8 0,5 -1,-4 -5,-8 -5,-8 0,-3 -1,-5 -1,-6 0,-4 -2,-2 -1,-3 1,-5 -1,0 0,-6z"/>
     <path class="fil7" d="M44 110c0,-1 -1,-2 -2,-1 -1,0 -1,1 0,0 0,0 1,1 1,1 1,0 1,0 2,1 0,0 1,0 1,0 0,0 1,0 0,0 0,-1 -1,0 -1,-1 0,0 -1,0 -1,0z"/>
     <path class="fil7" d="M48 111c0,0 1,0 1,0 1,1 1,0 2,1 0,0 0,0 0,1 -1,0 -2,0 -3,-1 0,0 0,0 0,0 -1,-1 0,-1 0,-1z"/>
     <path class="fil7" d="M50 92c0,0 3,1 4,1 6,1 0,4 5,5 0,0 1,0 1,-1 0,-1 -1,-3 -1,-4 0,-3 -2,-2 -4,-3 0,0 -5,0 -5,1 0,0 -1,1 0,1z"/>
    </g>
    <path class="fil8" d="M22 120c-1,15 2,22 16,22 1,-1 2,-2 1,-6 3,6 6,8 13,9 -7,3 -13,8 -20,8 3,-3 3,-5 1,-7 -8,-2 -17,-10 -11,-26z"/>
    <path class="fil9" d="M82 130c5,-30 -5,-37 -19,-33 -4,1 -1,3 1,7 -8,-6 -12,-5 -17,-5 4,-6 8,-14 14,-16 -3,5 -3,8 0,8 7,-3 31,-2 23,33 0,2 -2,6 -2,6z"/>
   </g>
   <path class="fil10 str1" d="M39 2l0 31 -11 0 22 30 22 -30 -11 0 0 -31 -22 0zm0 15m-6 16m6 15m22 0m6 -15m-6 -16m-11 -15"/>
  </g>
 </g>
</svg>
