<?xml version="1.0" encoding="UTF-8"?>
<!DOCTYPE svg PUBLIC "-//W3C//DTD SVG 1.1//EN" "http://www.w3.org/Graphics/SVG/1.1/DTD/svg11.dtd">
<!-- Creator: CorelDRAW X8 -->
<svg xmlns="http://www.w3.org/2000/svg" xml:space="preserve" width="145px" height="218px" version="1.1" style="shape-rendering:geometricPrecision; text-rendering:geometricPrecision; image-rendering:optimizeQuality; fill-rule:evenodd; clip-rule:evenodd"
viewBox="0 0 145 218"
 xmlns:xlink="http://www.w3.org/1999/xlink">
 <defs>
  <style type="text/css">
   <![CDATA[
    .str0 {stroke:#517A49;stroke-width:3.99936}
    .str1 {stroke:white;stroke-width:3.99936}
    .fil9 {fill:none}
    .fil7 {fill:#006633}
    .fil1 {fill:#1A1A1A}
    .fil4 {fill:#333333}
    .fil2 {fill:#4D4D4D}
    .fil3 {fill:#517A49}
    .fil0 {fill:#908F7D}
    .fil5 {fill:#CBD8C9}
    .fil8 {fill:#E6E6E6}
    .fil6 {fill:white;fill-rule:nonzero}
   ]]>
  </style>
   <mask id="id0">
  <linearGradient id="id1" gradientUnits="userSpaceOnUse" x1="-471.832" y1="-4103.95" x2="-557.51" y2="-3891.92">
   <stop offset="0" style="stop-opacity:1; stop-color:white"/>
   <stop offset="1" style="stop-opacity:0; stop-color:white"/>
  </linearGradient>
    <rect style="fill:url(#id1)" x="-731" y="-4251" width="481" height="471"/>
   </mask>
 </defs>
 <g id="Capa_x0020_1">
  <metadata id="CorelCorpID_0Corel-Layer"/>
  <path class="fil0" style="mask:url(#id0)" d="M-731 -4251c219,131 259,267 149,365 0,0 271,116 262,105 184,-252 -16,-429 -411,-470z"/>
  <g id="_1275673952">
   <g>
    <polygon class="fil1" points="22,218 123,218 123,32 22,32 "/>
    <rect class="fil2" x="27" y="37" width="91.871" height="26.6376"/>
    <rect class="fil3" x="31" y="41" width="82.5972" height="2.53984"/>
    <rect class="fil3" x="31" y="46" width="82.5972" height="2.53984"/>
    <rect class="fil3" x="31" y="51" width="59.209" height="2.53984"/>
    <rect class="fil3" x="31" y="57" width="82.5972" height="2.53984"/>
    <polygon class="fil4" points="22,218 123,218 107,151 38,151 "/>
    <circle class="fil5 str0" cx="113" cy="209" r="4"/>
    <circle class="fil5 str0" cx="101" cy="209" r="4"/>
    <circle class="fil5 str0" cx="90" cy="209" r="4"/>
   </g>
   <g>
    <path class="fil2" d="M94 107l15 0 4 15 2 -7 -3 -8 15 0 4 15 4 -15 10 0 -7 27c-1,2 -2,4 -3,6 -2,2 -4,2 -6,2 -2,0 -4,0 -6,-2 -1,-2 -2,-4 -3,-6l0 -2 -1 2c0,2 -1,4 -3,6 -1,2 -3,2 -6,2 -2,0 -4,0 -5,-2 -2,-2 -3,-4 -3,-6l-6 -20 -5 20c-1,2 -2,4 -3,6 -2,2 -4,2 -6,2 -2,0 -4,0 -6,-2 -1,-2 -2,-4 -3,-6l0 -2 -1 2c0,2 -1,4 -3,6 -1,2 -3,2 -5,2 -3,0 -5,0 -6,-2 -2,-2 -2,-4 -3,-6l-6 -20 -5 20c-1,2 -2,4 -3,6 -2,2 -4,2 -6,2 -2,0 -4,0 -6,-2 -1,-2 -2,-4 -3,-6l0 -2 -1 2c0,2 -1,4 -3,6 -1,2 -3,2 -5,2 -3,0 -4,0 -6,-2 -2,-2 -2,-4 -3,-6l-8 -27 15 0 4 15 2 -7 -2 -8 15 0 3 15 4 -15 21 0 4 15 2 -7 -2 -8 15 0 3 15 4 -15 6 0z"/>
   </g>
   <path class="fil6" d="M43 110l5 0 -6 23c-1,3 -2,4 -3,5 -1,2 -2,2 -4,2 -2,0 -3,0 -4,-2 -1,-1 -2,-2 -2,-5l-3 -10 -3 10c0,3 -1,4 -2,5 -2,2 -3,2 -4,2 -2,0 -3,0 -4,-1 -1,-2 -2,-3 -3,-6l-7 -23 10 0 6 22 4 -17 -1 -5 10 0 6 21 5 -21z"/>
   <path id="1" class="fil6" d="M90 110l5 0 -7 23c0,3 -1,4 -2,5 -1,2 -3,2 -4,2 -2,0 -3,0 -4,-2 -1,-1 -2,-2 -2,-5l-3 -10 -3 10c-1,3 -1,4 -2,5 -2,2 -3,2 -4,2 -2,0 -3,0 -4,-1 -1,-2 -2,-3 -3,-6l-7 -23 10 0 6 22 4 -17 -1 -5 10 0 5 21 6 -21z"/>
   <path id="2" class="fil6" d="M137 110l5 0 -7 23c0,3 -1,4 -2,5 -1,2 -3,2 -4,2 -2,0 -3,0 -4,-2 -1,-1 -2,-2 -3,-5l-2 -10 -3 10c-1,3 -1,4 -3,5 -1,2 -2,2 -4,2 -1,0 -2,0 -3,-1 -1,-2 -2,-3 -3,-6l-7 -23 10 0 6 22 4 -17 -1 -5 10 0 5 21 6 -21z"/>
   <g>
    <circle class="fil7 str1" cx="73" cy="32" r="30"/>
    <g>
     <path class="fil8" d="M52 40c10,-5 7,25 17,3 0,0 15,-33 20,-29 -3,3 -5,6 -7,11 -23,50 -16,25 -30,15z"/>
    </g>
    <path class="fil9" d="M52 40c5,-1 10,17 15,12 4,-4 16,-39 22,-38"/>
   </g>
  </g>
 </g>
</svg>
