<?xml version="1.0" encoding="UTF-8"?>
<!DOCTYPE svg PUBLIC "-//W3C//DTD SVG 1.1//EN" "http://www.w3.org/Graphics/SVG/1.1/DTD/svg11.dtd">
<!-- Creator: CorelDRAW X8 -->
<svg xmlns="http://www.w3.org/2000/svg" xml:space="preserve" width="195px" height="209px" version="1.1" style="shape-rendering:geometricPrecision; text-rendering:geometricPrecision; image-rendering:optimizeQuality; fill-rule:evenodd; clip-rule:evenodd"
viewBox="0 0 195 209"
 xmlns:xlink="http://www.w3.org/1999/xlink">
 <defs>
  <style type="text/css">
   <![CDATA[
    .fil2 {fill:#78A864}
    .fil1 {fill:#121768}
    .fil3 {fill:#51D1A6}
    .fil0 {fill:#908F7D}
    .fil4 {fill:#D97B3C}
   ]]>
  </style>
   <mask id="id0">
  <linearGradient id="id1" gradientUnits="userSpaceOnUse" x1="-446.818" y1="-4108.34" x2="-532.493" y2="-3896.32">
   <stop offset="0" style="stop-opacity:1; stop-color:white"/>
   <stop offset="1" style="stop-opacity:0; stop-color:white"/>
  </linearGradient>
    <rect style="fill:url(#id1)" x="-706" y="-4256" width="481" height="471"/>
   </mask>
 </defs>
 <g id="Capa_x0020_1">
  <metadata id="CorelCorpID_0Corel-Layer"/>
  <path class="fil0" style="mask:url(#id0)" d="M-706 -4255c219,131 259,267 149,365 0,0 271,116 262,105 184,-252 -16,-429 -411,-470z"/>
  <g id="_1102301344">
   <g>
    <circle class="fil1" cx="97" cy="111" r="91"/>
    <path class="fil2" d="M26 59c0,1 -4,22 3,18 0,0 3,-22 4,-12 1,9 -4,19 3,23 11,7 8,0 13,9 3,5 9,-3 10,5 0,6 21,18 10,20 -2,10 -1,23 8,29 7,5 5,16 12,21 0,1 2,14 -1,16 -1,1 -3,7 -3,10 0,1 1,2 2,1 1,0 -1,-1 0,-1 1,-1 4,-3 5,-5 5,-6 -4,-3 7,-5 2,-6 7,9 9,-6 0,0 5,-2 6,-8 1,-3 17,-6 16,-12 -1,-3 16,-7 15,-13 -1,-3 21,-18 1,-18 -1,0 -19,-9 -20,-13 -3,-10 -10,0 -22,-10 -8,-7 -10,-1 -18,-12 -2,-3 -4,5 -8,7 -4,1 0,11 -5,5 -9,-9 2,4 -8,-3 -3,-2 -3,-9 1,-7 2,-1 -6,-9 -12,-8 0,0 -3,-3 1,-5 7,-4 -3,-3 -9,1 -1,1 -7,-4 1,-11 3,-3 -2,-6 8,-10 9,-3 17,17 15,2 0,-8 -4,-1 5,-10 3,-2 12,-10 13,-12 3,-1 -9,-5 -5,-10 0,0 -3,-10 -7,4 -2,6 -11,5 -8,2 17,-16 3,-13 0,-14 -4,-1 -12,3 -18,6 -4,2 -15,11 -19,16 -1,1 -6,7 -5,10z"/>
    <path class="fil2" d="M166 53c8,5 14,21 14,22 4,8 7,19 7,30 1,2 1,24 -1,15 -2,-10 -13,-22 -13,-24 0,-10 -4,-14 -3,-16 0,-12 -6,-7 -5,-11 5,-14 -3,-1 1,-16z"/>
    <path class="fil2" d="M72 80c-2,-2 -6,-3 -8,-2 -2,0 -2,2 0,1 2,-1 3,2 5,2 2,1 1,0 3,2 1,1 3,1 4,1 1,0 2,1 2,-1 -1,-1 -4,0 -5,-1 -1,0 -1,-1 -1,-2z"/>
    <path class="fil2" d="M83 85c0,0 3,-2 4,-1 1,4 1,2 4,4 0,0 1,1 -1,1 -1,1 -5,1 -7,0 -1,-1 -1,-1 -2,-3 0,0 1,-1 2,-1z"/>
    <path class="fil2" d="M88 28c1,0 8,3 12,3 17,3 0,11 14,15 3,1 3,0 4,-4 2,-3 -2,-7 -2,-12 0,-7 -7,-6 -11,-8 0,0 -17,1 -17,2 -1,0 -1,5 0,4z"/>
   </g>
   <path class="fil3" d="M6 111c-4,44 6,65 46,65 3,-3 7,-5 4,-16 10,16 18,24 40,25 -21,11 -40,24 -62,24 10,-8 10,-14 5,-19 -24,-8 -52,-31 -33,-79z"/>
   <path class="fil4" d="M183 141c17,-88 -13,-109 -55,-98 -12,1 -3,9 2,21 -24,-19 -34,-16 -49,-16 10,-16 22,-40 40,-48 -9,17 -8,25 -1,24 22,-7 94,-4 70,99 -1,6 -6,19 -7,18z"/>
  </g>
 </g>
</svg>
