<?xml version="1.0" encoding="UTF-8"?>
<!DOCTYPE svg PUBLIC "-//W3C//DTD SVG 1.1//EN" "http://www.w3.org/Graphics/SVG/1.1/DTD/svg11.dtd">
<!-- Creator: CorelDRAW X8 -->
<svg xmlns="http://www.w3.org/2000/svg" xml:space="preserve" width="240px" height="216px" version="1.1" style="shape-rendering:geometricPrecision; text-rendering:geometricPrecision; image-rendering:optimizeQuality; fill-rule:evenodd; clip-rule:evenodd"
viewBox="0 0 240 216"
 xmlns:xlink="http://www.w3.org/1999/xlink">
 <defs>
  <style type="text/css">
   <![CDATA[
    .fil1 {fill:#1A1A1A}
    .fil4 {fill:#333333}
    .fil0 {fill:#908F7D}
    .fil2 {fill:#CBD8C9}
    .fil5 {fill:#E6E6E6}
    .fil3 {fill:#FF6600}
   ]]>
  </style>
   <mask id="id0">
  <linearGradient id="id1" gradientUnits="userSpaceOnUse" x1="-424.316" y1="-4104.83" x2="-509.992" y2="-3892.81">
   <stop offset="0" style="stop-opacity:1; stop-color:white"/>
   <stop offset="1" style="stop-opacity:0; stop-color:white"/>
  </linearGradient>
    <rect style="fill:url(#id1)" x="-684" y="-4252" width="481" height="471"/>
   </mask>
    <mask id="id2">
  <linearGradient id="id3" gradientUnits="userSpaceOnUse" x1="129.582" y1="104.363" x2="105.182" y2="164.744">
   <stop offset="0" style="stop-opacity:1; stop-color:white"/>
   <stop offset="1" style="stop-opacity:0; stop-color:white"/>
  </linearGradient>
     <rect style="fill:url(#id3)" x="55" y="62" width="138" height="135"/>
    </mask>
 </defs>
 <g id="Capa_x0020_1">
  <metadata id="CorelCorpID_0Corel-Layer"/>
  <path class="fil0" style="mask:url(#id0)" d="M-683 -4252c219,131 259,267 149,365 0,0 271,116 261,105 185,-252 -16,-429 -410,-470z"/>
  <g id="_1275681472">
   <rect class="fil1" width="240" height="216"/>
   <circle class="fil2" cx="222" cy="13" r="4"/>
   <circle class="fil2" cx="210" cy="13" r="4"/>
   <circle class="fil2" cx="198" cy="13" r="4"/>
   <path class="fil3" d="M10 13l-4 3c-1,-2 -1,-3 0,-5 1,-2 4,-3 6,-2 3,2 3,4 2,7l-4 -3z"/>
   <rect class="fil4" x="10" y="29" width="220" height="173"/>
   <path class="fil0" style="mask:url(#id2)" d="M56 63c62,37 74,75 42,103 0,0 77,33 75,30 52,-71 -5,-122 -117,-133z"/>
   <g>
    <path class="fil5" d="M83 110c-18,0 -32,14 -32,32 0,18 14,32 32,32 18,0 32,-14 32,-32 0,-18 -14,-32 -32,-32zm-12 15c3,-1 5,-1 7,-1 0,0 0,0 0,0 1,0 2,0 3,0 2,1 5,2 5,2l0 0c-1,3 -3,11 -4,14 -2,-2 -4,-3 -7,-3 0,0 0,0 0,0 -2,0 -5,0 -8,2l4 -14zm-1 28c-2,0 -5,1 -7,2l3 -13c1,0 1,0 2,-1 1,0 3,-1 5,-1 0,0 1,0 1,0 2,0 4,1 6,2 0,0 1,0 1,1 0,1 -3,10 -4,13 -2,-1 -4,-3 -7,-3zm25 5c-3,2 -5,2 -7,2 -4,0 -8,-3 -8,-3l4 -13c1,1 3,3 8,3 2,0 4,0 7,-1l-4 12zm5 -16c0,0 0,0 0,0 0,0 0,0 0,0 -3,1 -5,2 -7,2 -4,0 -6,-1 -9,-3 0,0 0,0 0,0l4 -13c2,1 4,3 8,3 3,0 5,-1 8,-2l-4 13z"/>
    <path class="fil5" d="M130 72l0 0c-1,0 -3,0 -4,0 -2,0 -4,3 -5,6 -1,3 -1,6 0,8 1,3 4,5 7,5 3,0 6,-2 7,-5 0,-2 1,-5 0,-8 -1,-3 -3,-6 -5,-6z"/>
    <path class="fil5" d="M132 43c-21,0 -39,17 -39,39 0,21 18,39 39,39 22,0 39,-18 39,-39 0,-22 -17,-39 -39,-39zm-19 52l-5 0 0 -19 5 0 0 19zm-3 -22c-1,0 -2,-1 -2,-3 0,-1 1,-2 2,-2 2,0 3,1 3,2 0,2 -1,3 -3,3zm24 21c-2,1 -3,1 -5,1 -1,0 -1,0 -2,0 -2,0 -3,0 -5,-1 -4,-2 -7,-6 -7,-12 0,-6 3,-11 7,-13 2,-1 4,-1 6,-1 2,0 4,0 5,1 5,2 7,7 7,13 0,6 -2,10 -6,12zm24 -4c-1,3 -3,5 -7,5 -1,0 -3,0 -3,0l0 0c-2,0 -4,0 -6,-1 0,0 1,-4 1,-4 3,1 7,2 9,1 2,-1 2,-2 2,-4 0,-2 -1,-3 -5,-4 -3,-1 -5,-3 -6,-5 -1,-1 -1,-3 -1,-4 1,-3 3,-5 7,-6 2,0 4,0 5,0 2,0 4,1 4,1 0,0 -1,4 -1,4 -2,-1 -4,-1 -5,-1 -3,0 -5,1 -5,3 1,2 2,3 5,4 3,1 4,2 5,3 2,2 2,3 2,5 0,2 0,2 -1,3z"/>
    <circle class="fil5" cx="150" cy="147" r="1"/>
    <path class="fil5" d="M155 130c-17,0 -32,14 -32,32 0,18 15,32 32,32 18,0 33,-14 33,-32 0,-18 -15,-32 -33,-32zm-13 37c0,2 -1,3 -3,3 -1,0 -2,-1 -2,-3l0 -11c0,-1 1,-2 2,-2 2,0 3,1 3,2l0 11zm25 -11l0 2 0 14c0,2 -1,3 -2,3l-2 0c0,0 0,1 0,1l0 0 0 1 0 4c0,2 -1,3 -3,3 -1,0 -2,-1 -2,-3l0 -4 0 -1 0 0c0,-1 0,-1 0,-1l-5 0c0,0 0,1 0,1l0 0 0 1 0 4c0,2 -1,3 -2,3 -2,0 -3,-1 -3,-3l0 -4 0 -1 0 0c0,-1 0,-1 0,-1l-2 0c-1,0 -2,-1 -2,-3l0 -14 0 -2 0 -2 0 0 23 0 0 0 0 2 0 0zm-23 -4c0,-4 2,-7 6,-8l-1 -1 0 -1 -1 -1c0,-1 0,-1 0,-1 0,0 0,0 0,0l1 2 1 1 0 0c2,0 4,-1 5,-1 2,0 4,1 6,1l0 0 0 -1 2 -2c0,0 0,0 0,0 0,0 0,0 0,1l-1 1 0 1 -1 1c4,1 6,4 6,8l-23 0zm30 15c0,2 -1,3 -2,3 -2,0 -3,-1 -3,-3l0 -11c0,-1 1,-2 3,-2 1,0 2,1 2,2l0 11z"/>
    <circle class="fil5" cx="161" cy="147" r="1"/>
   </g>
  </g>
 </g>
</svg>
