<?xml version="1.0" encoding="UTF-8"?>
<!DOCTYPE svg PUBLIC "-//W3C//DTD SVG 1.1//EN" "http://www.w3.org/Graphics/SVG/1.1/DTD/svg11.dtd">
<!-- Creator: CorelDRAW X8 -->
<svg xmlns="http://www.w3.org/2000/svg" xml:space="preserve" width="138px" height="158px" version="1.1" style="shape-rendering:geometricPrecision; text-rendering:geometricPrecision; image-rendering:optimizeQuality; fill-rule:evenodd; clip-rule:evenodd"
viewBox="0 0 138 158"
 xmlns:xlink="http://www.w3.org/1999/xlink">
 <defs>
  <style type="text/css">
   <![CDATA[
    .str1 {stroke:#5FA651;stroke-width:4.00046;stroke-opacity:0.800000}
    .str3 {stroke:white;stroke-width:0.99923;stroke-opacity:0.800000}
    .str4 {stroke:#5FA651;stroke-width:3.99928}
    .str2 {stroke:#5FA651;stroke-width:4.00046}
    .str0 {stroke:#AB8E18;stroke-width:4.00046}
    .fil1 {fill:none}
    .fil6 {fill:none}
    .fil7 {fill:#1A1A1A}
    .fil5 {fill:#664A33}
    .fil0 {fill:#908F7D}
    .fil8 {fill:#669999;fill-opacity:0.470588}
    .fil2 {fill:#1A1A1A;fill-opacity:0.800000}
    .fil4 {fill:#C5B15D;fill-opacity:0.800000}
    .fil3 {fill:#F0D66E;fill-opacity:0.800000}
   ]]>
  </style>
   <mask id="id0">
  <linearGradient id="id1" gradientUnits="userSpaceOnUse" x1="-475.32" y1="-4133.86" x2="-560.997" y2="-3921.84">
   <stop offset="0" style="stop-opacity:1; stop-color:white"/>
   <stop offset="1" style="stop-opacity:0; stop-color:white"/>
  </linearGradient>
    <rect style="fill:url(#id1)" x="-735" y="-4281" width="481" height="471"/>
   </mask>
 </defs>
 <g id="Capa_x0020_1">
  <metadata id="CorelCorpID_0Corel-Layer"/>
  <path class="fil0" style="mask:url(#id0)" d="M-734 -4281c219,131 258,267 149,365 0,0 271,116 261,105 185,-252 -16,-429 -410,-470z"/>
  <g id="_1011814896">
   <polyline class="fil1 str0" points="48,55 17,41 42,61 18,60 "/>
   <path class="fil2 str1" d="M98 63c6,0 11,5 11,11 0,7 -5,12 -11,12 -6,0 -11,-5 -11,-12 0,-6 5,-11 11,-11z"/>
   <path class="fil3" d="M80 61c-12,17 -4,43 34,32 -1,1 -2,2 -2,3 -34,14 -51,-16 -34,-34 1,0 1,-1 2,-1z"/>
   <path class="fil4" d="M83 59c2,-1 4,-2 6,-3 3,0 6,0 10,0 1,0 4,1 6,2 -7,1 -16,1 -22,1z"/>
   <path class="fil5 str2" d="M116 156l3 -1c3,-1 4,-4 3,-7l-9 -31 -14 4 10 31c1,3 4,5 7,4z"/>
   <line class="fil6 str3" x1="80" y1="81" x2="95" y2= "98" />
   <line class="fil6 str3" x1="79" y1="74" x2="96" y2= "93" />
   <path class="fil7 str4" d="M94 39c23,0 41,18 41,41 0,23 -18,40 -41,40 -23,0 -40,-17 -40,-40 0,-23 17,-41 40,-41zm0 16c14,0 25,11 25,25 0,13 -11,24 -25,24 -13,0 -24,-11 -24,-24 0,-14 11,-25 24,-25z"/>
   <polygon class="fil7 str2" points="9,30 20,24 44,46 52,41 21,14 3,24 "/>
   <polygon class="fil7 str2" points="100,2 80,32 89,36 103,13 119,17 119,9 "/>
   <path class="fil8" d="M94 56c13,0 24,11 24,24 0,12 -11,23 -24,23 -12,0 -23,-11 -23,-23 0,-13 11,-24 23,-24z"/>
  </g>
 </g>
</svg>
