<?xml version="1.0" encoding="UTF-8"?>
<!DOCTYPE svg PUBLIC "-//W3C//DTD SVG 1.1//EN" "http://www.w3.org/Graphics/SVG/1.1/DTD/svg11.dtd">
<!-- Creator: CorelDRAW X8 -->
<svg xmlns="http://www.w3.org/2000/svg" xml:space="preserve" width="199px" height="158px" version="1.1" style="shape-rendering:geometricPrecision; text-rendering:geometricPrecision; image-rendering:optimizeQuality; fill-rule:evenodd; clip-rule:evenodd"
viewBox="0 0 199 158"
 xmlns:xlink="http://www.w3.org/1999/xlink">
 <defs>
  <style type="text/css">
   <![CDATA[
    .str1 {stroke:#666666;stroke-width:0.900004;stroke-opacity:0.800000}
    .str0 {stroke:#5FA651;stroke-width:4.00041}
    .fil2 {fill:#1A1A1A}
    .fil1 {fill:#333333}
    .fil0 {fill:#908F7D}
    .fil3 {fill:#999999;fill-opacity:0.800000}
   ]]>
  </style>
   <mask id="id0">
  <linearGradient id="id1" gradientUnits="userSpaceOnUse" x1="-444.813" y1="-4133.81" x2="-530.488" y2="-3921.79">
   <stop offset="0" style="stop-opacity:1; stop-color:white"/>
   <stop offset="1" style="stop-opacity:0; stop-color:white"/>
  </linearGradient>
    <rect style="fill:url(#id1)" x="-704" y="-4281" width="481" height="471"/>
   </mask>
 </defs>
 <g id="Capa_x0020_1">
  <metadata id="CorelCorpID_0Corel-Layer"/>
  <path class="fil0" style="mask:url(#id0)" d="M-704 -4281c219,131 259,267 149,365 0,0 271,116 262,105 184,-252 -16,-429 -411,-470z"/>
  <g id="_1189542800">
   <path class="fil1 str0" d="M114 95c0,0 -42,0 -42,0 0,27 -41,28 -21,31 7,2 78,2 85,0 21,-3 -22,-4 -22,-31zm-16 9c0,0 7,0 7,0 1,9 9,12 12,15 -7,0 -9,0 -16,-1 -2,-5 -3,-2 -3,-14zm-10 0c0,0 -7,0 -7,0 -1,9 -8,13 -12,16 7,0 9,0 16,-1 2,-5 3,-3 3,-15z"/>
   <rect class="fil1 str0" x="3" y="2" width="181.766" height="94.7648"/>
   <polygon class="fil2" points="12,11 12,88 176,88 176,11 "/>
   <rect class="fil1 str0" x="93" y="92" width="103.325" height="63.9085"/>
   <polygon class="fil2" points="99,98 99,150 182,150 182,98 "/>
   <path class="fil3 str1" d="M188 120c2,0 3,2 3,4 0,2 -1,3 -3,3 -2,0 -4,-1 -4,-3 0,-2 2,-4 4,-4z"/>
   <rect class="fil1 str0" x="21" y="93" width="30.2084" height="46.3154"/>
   <polygon class="fil2" points="26,98 26,132 46,132 46,98 "/>
   <path class="fil3 str1" d="M36 133c1,0 2,0 2,1 0,1 -1,2 -2,2 -1,0 -1,-1 -1,-2 0,-1 0,-1 1,-1z"/>
  </g>
 </g>
</svg>
