<?xml version="1.0" encoding="UTF-8"?>
<!DOCTYPE svg PUBLIC "-//W3C//DTD SVG 1.1//EN" "http://www.w3.org/Graphics/SVG/1.1/DTD/svg11.dtd">
<!-- Creator: CorelDRAW X8 -->
<svg xmlns="http://www.w3.org/2000/svg" xml:space="preserve" width="154px" height="156px" version="1.1" style="shape-rendering:geometricPrecision; text-rendering:geometricPrecision; image-rendering:optimizeQuality; fill-rule:evenodd; clip-rule:evenodd"
viewBox="0 0 154 156"
 xmlns:xlink="http://www.w3.org/1999/xlink">
 <defs>
  <style type="text/css">
   <![CDATA[
    .str2 {stroke:white;stroke-width:0.999233;stroke-opacity:0.800000}
    .str1 {stroke:#5FA651;stroke-width:3.99929}
    .str0 {stroke:#5FA651;stroke-width:4.99971}
    .fil4 {fill:none}
    .fil1 {fill:#1A1A1A}
    .fil3 {fill:#669999}
    .fil0 {fill:#908F7D}
    .fil2 {fill:#333333;fill-opacity:0.800000}
   ]]>
  </style>
   <mask id="id0">
  <linearGradient id="id1" gradientUnits="userSpaceOnUse" x1="-467.322" y1="-4134.88" x2="-552.999" y2="-3922.85">
   <stop offset="0" style="stop-opacity:1; stop-color:white"/>
   <stop offset="1" style="stop-opacity:0; stop-color:white"/>
  </linearGradient>
    <rect style="fill:url(#id1)" x="-727" y="-4282" width="481" height="471"/>
   </mask>
 </defs>
 <g id="Capa_x0020_1">
  <metadata id="CorelCorpID_0Corel-Layer"/>
  <path class="fil0" style="mask:url(#id0)" d="M-726 -4282c219,131 258,267 149,365 0,0 271,116 261,105 185,-252 -16,-429 -410,-470z"/>
  <g id="_1190207760">
   <path class="fil1 str0" d="M136 150c-8,13 -27,-9 -41,2 -13,4 -12,-18 -4,-19 16,-6 24,15 45,17z"/>
   <path class="fil1 str0" d="M25 150c9,13 28,-9 41,2 14,4 12,-18 4,-19 -15,-6 -24,15 -45,17z"/>
   <path class="fil1 str1" d="M31 53c-3,5 -58,0 -8,16 39,14 73,15 110,0 45,-16 -3,-10 -7,-16 -1,0 9,-51 8,-51 0,0 -112,0 -112,0 -1,0 10,51 9,51z"/>
   <path class="fil2" d="M35 53c27,7 62,8 88,0 0,-3 0,-7 1,-10 -28,3 -62,3 -91,0 1,3 1,7 2,10z"/>
   <path class="fil1 str1" d="M100 80c10,0 17,7 17,17 0,10 -7,18 -17,18 -10,0 -18,-8 -18,-18 0,-10 8,-17 18,-17zm0 7c6,0 10,4 10,10 0,6 -4,11 -10,11 -6,0 -11,-5 -11,-11 0,-6 5,-10 11,-10z"/>
   <circle class="fil3" cx="100" cy="97" r="12"/>
   <line class="fil4 str2" x1="92" y1="94" x2="101" y2= "104" />
   <line class="fil4 str2" x1="91" y1="98" x2="98" y2= "105" />
  </g>
 </g>
</svg>
