<?xml version="1.0" encoding="UTF-8"?>
<!DOCTYPE svg PUBLIC "-//W3C//DTD SVG 1.1//EN" "http://www.w3.org/Graphics/SVG/1.1/DTD/svg11.dtd">
<!-- Creator: CorelDRAW X8 -->
<svg xmlns="http://www.w3.org/2000/svg" xml:space="preserve" width="84.6666mm" height="84.6666mm" version="1.1" style="shape-rendering:geometricPrecision; text-rendering:geometricPrecision; image-rendering:optimizeQuality; fill-rule:evenodd; clip-rule:evenodd"
viewBox="0 0 8467 8467"
 xmlns:xlink="http://www.w3.org/1999/xlink">
 <defs>
  <style type="text/css">
   <![CDATA[
    .str0 {stroke:#373435;stroke-width:0.99}
    .fil1 {fill:none}
    .fil0 {fill:#189D0E}
    .fil2 {fill:#F7F7F7}
   ]]>
  </style>
 </defs>
 <g id="Capa_x0020_1">
  <metadata id="CorelCorpID_0Corel-Layer"/>
  <path class="fil0" d="M1472 6197l-444 1372 1417 -458c519,323 1132,510 1788,510 1872,0 3388,-1516 3388,-3388 0,-1871 -1516,-3388 -3388,-3388 -1871,0 -3388,1517 -3388,3388 0,732 232,1410 627,1964z"/>
  <path class="fil1 str0" d="M783 6687l-555 1714 1771 -572c649,404 1414,638 2234,638 2339,0 4234,-1895 4234,-4234 0,-2338 -1895,-4233 -4234,-4233 -2338,0 -4233,1895 -4233,4233 0,915 290,1762 783,2454z"/>
  <path class="fil2" d="M2268 3244c0,258 35,384 142,597 397,792 934,1406 1684,1868 215,133 784,409 1028,409 588,0 1076,-260 1076,-852 0,-81 9,-106 -51,-137l-620 -335c-70,-38 -180,-109 -270,-109 -93,0 -104,55 -146,105l-363 406c-282,-70 -611,-270 -829,-437 -200,-154 -430,-418 -559,-709 -16,-36 -81,-198 -77,-229 4,-26 126,-136 154,-164 92,-93 212,-299 136,-445l-411 -859c-78,0 -390,-13 -438,8 -63,28 -193,164 -234,214 -130,161 -222,394 -222,669z"/>
 </g>
</svg>
