<?xml version="1.0" encoding="UTF-8"?>
<!DOCTYPE svg PUBLIC "-//W3C//DTD SVG 1.1//EN" "http://www.w3.org/Graphics/SVG/1.1/DTD/svg11.dtd">
<!-- Creator: CorelDRAW X8 -->
<svg xmlns="http://www.w3.org/2000/svg" xml:space="preserve" width="16.9332mm" height="6.2652mm" version="1.1" style="shape-rendering:geometricPrecision; text-rendering:geometricPrecision; image-rendering:optimizeQuality; fill-rule:evenodd; clip-rule:evenodd"
viewBox="0 0 1693 627"
 xmlns:xlink="http://www.w3.org/1999/xlink">
 <defs>
  <style type="text/css">
   <![CDATA[
    .fil0 {fill:black}
   ]]>
  </style>
 </defs>
 <g id="Capa_x0020_1">
  <metadata id="CorelCorpID_0Corel-Layer"/>
  <g id="_718498656">
   <path class="fil0" d="M316 434l2 0 77 -236 246 0 0 418 -141 0 0 -390 -2 0 -133 390 -95 0 -131 -385 -2 1 0 384 -141 0 0 -418 244 0 76 236zm96 -290l43 -133 186 0 0 133 -229 0zm-416 0l0 -133 185 0 42 133 -227 0zm1103 228l-221 0 0 244 -141 0 0 -418 141 0 0 66 221 0 0 108zm-362 -228l0 -133 404 0 0 108 -263 0 0 25 -141 0zm953 388c-21,26 -51,47 -89,65 -38,18 -87,27 -148,27 -75,0 -136,-23 -182,-69 -47,-46 -71,-105 -71,-179l0 -126c0,-18 2,-36 5,-52l142 0c-5,15 -7,32 -7,51l0 127c0,42 10,76 30,102 20,25 48,38 83,38 26,0 46,-2 61,-6 15,-4 27,-10 35,-16l0 -108 -107 0 0 -94 248 0 0 240zm-470 -388c12,-27 28,-51 49,-73 45,-46 104,-69 176,-69 41,0 76,5 107,15 -8,12 -12,27 -12,42 0,45 34,81 78,85l-87 0c-3,-5 -6,-9 -10,-12 -16,-15 -40,-22 -72,-22 -30,0 -55,11 -75,34l-154 0zm413 0c13,-1 26,-5 36,-12 2,4 3,8 3,12l-39 0z"/>
   <path class="fil0" d="M1552 17c13,-8 28,-13 44,-13 47,0 85,38 85,85 0,16 -4,30 -12,43 -26,-9 -49,-21 -68,-37 -24,-21 -41,-48 -49,-78z"/>
  </g>
 </g>
</svg>
