<?xml version="1.0" encoding="UTF-8"?>
<!DOCTYPE svg PUBLIC "-//W3C//DTD SVG 1.1//EN" "http://www.w3.org/Graphics/SVG/1.1/DTD/svg11.dtd">
<!-- Creator: CorelDRAW X8 -->
<svg xmlns="http://www.w3.org/2000/svg" xml:space="preserve" width="16.9332mm" height="6.2652mm" version="1.1" style="shape-rendering:geometricPrecision; text-rendering:geometricPrecision; image-rendering:optimizeQuality; fill-rule:evenodd; clip-rule:evenodd"
viewBox="0 0 1693 627"
 xmlns:xlink="http://www.w3.org/1999/xlink">
 <defs>
  <style type="text/css">
   <![CDATA[
    .fil0 {fill:white}
   ]]>
  </style>
 </defs>
 <g id="Capa_x0020_1">
  <metadata id="CorelCorpID_0Corel-Layer"/>
  <g id="_718484960">
   <path class="fil0" d="M319 434l3 0 137 -423 185 0 0 605 -140 0 0 -390 -3 0 -133 390 -94 0 -131 -385 -3 1 0 384 -140 0 0 -605 184 0 135 423zm784 -62l-222 0 0 244 -140 0 0 -605 404 0 0 108 -264 0 0 145 222 0 0 108zm590 160c-21,26 -50,47 -89,65 -38,18 -87,27 -147,27 -75,0 -136,-23 -183,-69 -47,-46 -70,-105 -70,-179l0 -126c0,-73 23,-132 68,-179 46,-46 105,-69 176,-69 41,0 77,5 107,15 -7,12 -11,27 -11,42 0,47 38,85 85,85 16,0 31,-4 44,-12 6,19 8,40 7,63l0 3 -132 0c0,-30 -8,-52 -24,-66 -16,-15 -39,-22 -71,-22 -33,0 -59,13 -79,39 -20,26 -30,59 -30,100l0 127c0,42 10,76 30,102 19,25 47,38 83,38 26,0 46,-2 61,-6 15,-4 26,-10 35,-16l0 -108 -107 0 0 -94 247 0 0 240z"/>
   <path class="fil0" d="M1555 17c13,-8 28,-13 44,-13 47,0 85,38 85,85 0,16 -4,30 -11,43 -27,-9 -50,-21 -68,-37 -24,-21 -41,-48 -50,-78z"/>
  </g>
 </g>
</svg>
